# xmcd
#
# Track frame offsets:
#	150
#	19698
#	34296
#	48894
#	64092
#	80415
#	93888
#	106536
#	120834
#	136932
#	150780
#	169128
#
# Disc length: 2438 seconds
#
# Revision: 0
# Processed by: cddbd v1.5.2PL0 Copyright (c) Steve Scherf et al.
# Submitted via: EasyCDDAExtractor 16.1.0.1
#
DISCID=7d09840c
DTITLE=Orrawee Sajjanon  อรวี สัจจานนท์ - Orrawee Sajjanon  อรวี สัจจานนท์  Si
DTITLE=gnature Collection 1
DYEAR=1900
DGENRE=
TTITLE0=แว่วเสียงซึง
TTITLE1=กุหลาบเวียงพิงค์
TTITLE2=บุษบาเสี่ยงเทียน
TTITLE3=ฝากดิน
TTITLE4=บาร์หัวใจ
TTITLE5=กอดหมอนนอนหนาว
TTITLE6=คืนนี้พี่นอนกับใคร
TTITLE7=เหมือนข้าวคอยเคียว
TTITLE8=น้องเป็นคนรักที่เท่าไหร่
TTITLE9=สันป่าตอง
TTITLE10=สายน้ำไม่ไหลกลับ
TTITLE11=ไทรโยคแห่งความหลัง
EXTD=
EXTT0=
EXTT1=
EXTT2=
EXTT3=
EXTT4=
EXTT5=
EXTT6=
EXTT7=
EXTT8=
EXTT9=
EXTT10=
EXTT11=
PLAYORDER=
